<svg width="319" height="240" viewBox="0 0 319 240" fill="none" xmlns="http://www.w3.org/2000/svg">
<g clip-path="url(#clip0_3_104)">
<mask id="mask0_3_104" style="mask-type:luminance" maskUnits="userSpaceOnUse" x="0" y="0" width="319" height="240">
<path d="M319 0H0V240H319V0Z" fill="white"/>
</mask>
<g mask="url(#mask0_3_104)">
<path d="M57.1141 72.3203C57.1141 72.3203 59.638 42.1391 88.9377 33.4438L122.539 33.937C122.539 33.937 149.87 41.8154 151.741 71.2815L57.1141 72.3203Z" fill="#93D0AC"/>
<path d="M55.8174 83.3212L69.9575 206.944C70.0176 207.348 70.1846 207.726 70.4393 208.037C70.694 208.347 71.0266 208.578 71.3996 208.702C74.6839 209.993 84.3782 213.024 103.054 212.975C124.195 212.918 132.166 209.707 134.827 208.104C135.176 207.906 135.478 207.628 135.71 207.291C135.942 206.954 136.097 206.567 136.164 206.158L153.419 82.0791L55.8174 83.3212Z" fill="#93D0AC"/>
<path d="M128.238 107.105L125.379 110.831C125.37 110.843 125.366 110.857 125.365 110.871C125.365 110.886 125.369 110.9 125.377 110.912C125.385 110.924 125.397 110.932 125.41 110.937C125.423 110.941 125.437 110.941 125.45 110.936L127.228 110.236C127.238 110.233 127.249 110.232 127.259 110.234C127.27 110.235 127.28 110.239 127.289 110.246C127.297 110.253 127.304 110.261 127.309 110.272C127.313 110.282 127.315 110.293 127.315 110.304L126.954 114.867C126.952 114.882 126.955 114.897 126.963 114.91C126.971 114.923 126.983 114.933 126.996 114.939C127.01 114.944 127.025 114.944 127.039 114.939C127.053 114.934 127.065 114.924 127.073 114.912C127.683 113.974 130.145 110.082 130.426 107.887" fill="#0C513F"/>
<path d="M131.333 108.253C131.333 108.253 133.654 111.083 134.159 113.842C134.167 113.877 134.165 113.913 134.155 113.947C134.145 113.981 134.126 114.012 134.1 114.036C134.075 114.059 134.044 114.076 134.01 114.083C133.977 114.09 133.942 114.087 133.91 114.076C132.908 113.741 129.808 112.37 130.348 108.527" fill="#0C513F"/>
<path d="M131.325 107.779L131.166 115.179C131.165 115.216 131.155 115.252 131.138 115.283C131.12 115.315 131.094 115.341 131.064 115.36C131.033 115.378 130.999 115.388 130.964 115.389C130.929 115.39 130.894 115.381 130.863 115.363C129.929 114.833 127.258 112.755 129.079 107.105" fill="#0C513F"/>
<path d="M124.475 103.072C124.475 103.072 126.252 91.5193 132.987 92.6184C132.987 92.6184 137.23 93.1116 137.706 98.6938C138.182 104.276 138.615 109.41 132.45 109.233C123.714 109.023 124.475 103.072 124.475 103.072Z" fill="#ED5E3B"/>
<path d="M126.528 103.784C126.699 103.418 126.652 103.027 126.423 102.91C126.194 102.793 125.869 102.995 125.698 103.361C125.527 103.728 125.574 104.119 125.803 104.236C126.032 104.353 126.356 104.15 126.528 103.784Z" fill="#0C513F"/>
<path d="M131.917 105.724C132.036 105.469 131.848 105.119 131.497 104.939C131.147 104.761 130.766 104.822 130.647 105.076C130.528 105.33 130.716 105.681 131.067 105.86C131.418 106.038 131.798 105.977 131.917 105.724Z" fill="#0C513F"/>
<path d="M131.052 97.1211C131.232 96.7366 131.188 96.3276 130.954 96.2081C130.72 96.0886 130.384 96.3036 130.204 96.6886C130.024 97.0731 130.067 97.482 130.302 97.6015C130.537 97.7211 130.872 97.506 131.052 97.1211Z" fill="#FFEDB3"/>
<path d="M135.528 101.242C135.646 100.988 135.468 100.642 135.131 100.47C134.792 100.298 134.422 100.364 134.303 100.618C134.184 100.872 134.362 101.218 134.7 101.39C135.038 101.563 135.409 101.497 135.528 101.242Z" fill="#0C513F"/>
<path d="M127.395 98.0674C127.574 97.6864 127.586 97.3102 127.424 97.2269C127.26 97.1442 126.984 97.3856 126.806 97.7667C126.627 98.1478 126.615 98.5239 126.778 98.6072C126.941 98.69 127.217 98.4485 127.395 98.0674Z" fill="#FFEDB3"/>
<path d="M136.059 95.4393C136.152 95.2414 135.899 94.9137 135.494 94.7075C135.09 94.5013 134.687 94.4944 134.595 94.6928C134.502 94.8907 134.754 95.2184 135.159 95.4246C135.563 95.6308 135.966 95.6371 136.059 95.4393Z" fill="#FFEDB3"/>
<path d="M136.482 107.466C136.653 107.099 136.628 106.719 136.425 106.616C136.223 106.513 135.921 106.726 135.749 107.092C135.578 107.458 135.603 107.839 135.805 107.942C136.008 108.045 136.311 107.831 136.482 107.466Z" fill="#0C513F"/>
<path d="M71.5099 106.228L70.18 112.729C70.1729 112.75 70.1739 112.772 70.1814 112.792C70.1889 112.812 70.2034 112.828 70.2217 112.838C70.24 112.849 70.2611 112.851 70.2808 112.847C70.301 112.842 70.3188 112.829 70.331 112.812L72.1338 110.783C72.1437 110.771 72.1559 110.761 72.1704 110.756C72.1845 110.751 72.2 110.749 72.215 110.752C72.23 110.755 72.2441 110.761 72.2558 110.771C72.2675 110.782 72.2764 110.795 72.2816 110.809L74.5671 116.723C74.5746 116.742 74.5883 116.759 74.6051 116.769C74.6225 116.78 74.6427 116.784 74.6624 116.782C74.6821 116.779 74.7004 116.77 74.7144 116.755C74.7285 116.74 74.7379 116.721 74.7403 116.701C74.9387 115.138 75.6775 108.687 74.7154 105.785" fill="#0C513F"/>
<path d="M76.0345 105.631C76.0345 105.631 80.6202 107.641 82.8841 110.747C82.9141 110.786 82.9334 110.832 82.9404 110.881C82.9474 110.93 82.9418 110.981 82.924 111.027C82.9066 111.073 82.8775 111.114 82.8405 111.144C82.803 111.175 82.7584 111.195 82.711 111.202C81.2689 111.432 76.5825 111.748 74.9673 106.618" fill="#0C513F"/>
<path d="M75.7569 105.057L79.9714 114.366C79.993 114.413 80.0028 114.464 80 114.516C79.9972 114.568 79.9817 114.618 79.955 114.661C79.9278 114.704 79.8907 114.74 79.8471 114.764C79.8035 114.789 79.7542 114.8 79.705 114.799C78.2301 114.747 73.6336 113.911 72.5481 105.678" fill="#0C513F"/>
<path d="M64.4197 103.666C64.4197 103.666 59.7328 88.1315 68.7459 85.109C68.7459 85.109 74.3233 82.9597 78.2563 89.596C82.1899 96.2322 85.788 102.345 78.0222 106.158C67.0299 111.571 64.4197 103.666 64.4197 103.666Z" fill="#ED5E3B"/>
<path d="M66.7408 104.235C67.0973 104.231 67.3816 103.769 67.376 103.201C67.3703 102.633 67.0767 102.176 66.7201 102.18C66.3636 102.184 66.0793 102.647 66.0854 103.215C66.0911 103.782 66.3843 104.239 66.7408 104.235Z" fill="#0C513F"/>
<path d="M74.2613 102.815C74.805 102.809 75.2422 102.486 75.2385 102.093C75.2347 101.7 74.7905 101.386 74.2472 101.392C73.7035 101.398 73.2663 101.722 73.27 102.115C73.2738 102.507 73.7181 102.821 74.2613 102.815Z" fill="#0C513F"/>
<path d="M68.3701 93.0524C68.7322 93.0484 69.0212 92.5616 69.0151 91.965C69.009 91.3684 68.7106 90.888 68.3485 90.8919C67.9859 90.8958 67.6969 91.3826 67.703 91.9792C67.7091 92.5763 68.0074 93.0563 68.3701 93.0524Z" fill="#FFEDB3"/>
<path d="M76.1129 94.8946C76.6364 94.8887 77.0577 94.566 77.0539 94.1726C77.0497 93.7798 76.6223 93.4664 76.0983 93.4717C75.5748 93.4776 75.1535 93.8009 75.1577 94.1937C75.1615 94.5865 75.5893 94.9005 76.1129 94.8946Z" fill="#FFEDB3"/>
<path d="M64.5806 96.5906C64.8316 96.5882 65.03 96.1072 65.0244 95.517C65.0183 94.9263 64.81 94.4502 64.5595 94.4526C64.3085 94.4556 64.1101 94.9366 64.1157 95.5268C64.1218 96.117 64.3301 96.5935 64.5806 96.5906Z" fill="#0C513F"/>
<path d="M73.1176 87.172C73.7448 87.1652 74.251 86.9119 74.2477 86.6063C74.2449 86.3007 73.734 86.0587 73.1068 86.0656C72.4796 86.0724 71.9734 86.3257 71.9767 86.6313C71.9795 86.9369 72.4904 87.1789 73.1176 87.172Z" fill="#FFEDB3"/>
<path d="M81.4121 102.342C81.7269 102.339 81.9774 101.876 81.9713 101.308C81.9656 100.741 81.7062 100.284 81.3914 100.287C81.0771 100.291 80.8266 100.753 80.8322 101.321C80.8379 101.888 81.0978 102.346 81.4121 102.342Z" fill="#FFEDB3"/>
<path d="M152.799 97.4355L136.341 213.786C136.276 214.194 136.122 214.581 135.893 214.917C135.663 215.254 135.362 215.531 135.014 215.729C132.354 217.328 124.404 220.528 103.321 220.584C84.7067 220.637 75.0269 217.614 71.7496 216.327C71.3795 216.202 71.0502 215.971 70.7987 215.661C70.5473 215.351 70.3836 214.975 70.3254 214.573L55.057 92.1996C55.057 92.1996 62.9598 89.565 67.9854 94.7519C80.9392 108.103 84.3572 97.3865 97.0402 97.2553C110.095 97.1117 111.789 106.504 131.932 97.9777C140.336 94.4208 147.276 95.8887 152.799 97.4355Z" fill="#FEF9E5"/>
<path d="M66.0071 196.069C72.9876 195.993 78.5865 189.977 78.5129 182.633C78.4392 175.288 72.7207 169.396 65.7402 169.473C58.7597 169.549 53.1608 175.565 53.2345 182.909C53.3081 190.253 59.0267 196.145 66.0071 196.069Z" fill="#FFC501"/>
<path d="M84.8625 194.75C91.3691 194.679 96.588 189.072 96.5196 182.227C96.4506 175.381 91.1205 169.889 84.6138 169.961C78.1072 170.032 72.8882 175.638 72.9567 182.484C73.0252 189.33 78.3558 194.821 84.8625 194.75Z" fill="#FFC501"/>
<path d="M140.44 185.113C144.591 185.068 147.916 180.952 147.865 175.919C147.815 170.886 144.409 166.843 140.258 166.889C136.106 166.934 132.782 171.05 132.832 176.083C132.883 181.116 136.289 185.159 140.44 185.113Z" fill="#FFC501"/>
<path d="M84.8614 178.573C84.8614 178.426 85.1176 178.444 85.1317 178.573C85.2794 180.316 85.4094 182.047 88.8166 181.731C89.022 181.731 89.0183 182.081 88.8166 182.145C87.7024 182.495 86.9814 183.233 87.169 186.545C87.169 186.598 87.1001 186.617 87.086 186.568C86.7253 185.367 85.6439 181.479 83.2209 186.274C83.1886 186.338 83.0947 186.274 83.1201 186.214C83.5057 185.243 84.032 183.153 81.7174 182.71C81.6883 182.705 81.6616 182.691 81.6409 182.669C81.6208 182.646 81.6081 182.618 81.6058 182.587C81.6034 182.556 81.6109 182.525 81.6273 182.5C81.6438 182.474 81.6677 182.455 81.6958 182.446C82.7162 182.122 84.6377 181.75 84.8614 178.573Z" fill="#141414"/>
<path d="M125.845 191.102C131.246 191.043 135.576 186.113 135.516 180.091C135.455 174.069 131.028 169.234 125.626 169.294C120.225 169.353 115.895 174.283 115.955 180.305C116.015 186.327 120.443 191.161 125.845 191.102Z" fill="#FFC501"/>
<path d="M123.44 177.9C123.328 177.832 123.234 178.039 123.342 178.118C124.165 178.713 125.282 179.586 125.286 179.94C125.289 180.294 124.107 181.491 123.357 182.199C123.335 182.217 123.322 182.244 123.317 182.273C123.314 182.303 123.32 182.332 123.336 182.356C123.351 182.381 123.375 182.399 123.402 182.406C123.429 182.414 123.458 182.411 123.483 182.398C124.723 181.826 126.876 179.345 129.331 180.486C129.435 180.535 129.471 180.316 129.374 180.26C128.743 179.883 127.672 178.958 128.837 177.249C128.853 177.226 128.862 177.198 128.861 177.17C128.86 177.142 128.85 177.115 128.832 177.094C128.814 177.073 128.79 177.059 128.762 177.055C128.736 177.051 128.708 177.057 128.685 177.072C127.683 177.7 126.634 179.816 123.44 177.9Z" fill="#141414"/>
<path d="M108.102 198.504C114.857 198.43 120.275 192.472 120.202 185.196C120.129 177.92 114.593 172.082 107.837 172.156C101.082 172.23 95.6648 178.188 95.7375 185.463C95.8107 192.739 101.346 198.578 108.102 198.504Z" fill="#FFC501"/>
<path d="M107.737 180.123C107.175 180.876 106.756 181.685 106.017 184.376C106.014 184.404 106.003 184.431 105.986 184.453C105.97 184.475 105.948 184.493 105.923 184.504L103.551 185.238C103.522 185.246 103.496 185.263 103.477 185.287C103.459 185.312 103.449 185.343 103.449 185.374C103.449 185.405 103.459 185.436 103.477 185.46C103.496 185.485 103.522 185.502 103.551 185.509L105.819 185.645C105.895 185.645 106.014 186.232 105.988 186.308L105.04 189.571C105.034 189.602 105.037 189.635 105.05 189.664C105.063 189.692 105.085 189.716 105.113 189.73C105.14 189.744 105.171 189.749 105.201 189.742C105.231 189.736 105.258 189.719 105.278 189.695C105.942 188.781 106.291 186.895 107.661 186.684C108.743 186.529 109.464 188.566 110.185 189.168C110.208 189.189 110.238 189.201 110.269 189.202C110.3 189.202 110.33 189.192 110.354 189.172C110.379 189.152 110.396 189.123 110.402 189.092C110.409 189.06 110.404 189.027 110.39 188.999C109.904 187.945 108.516 185.611 111.277 183.255C111.389 183.161 111.245 182.976 111.115 183.04C109.842 183.702 107.192 185.253 107.975 180.221C107.975 180.192 107.967 180.164 107.951 180.14C107.936 180.116 107.914 180.097 107.888 180.087C107.862 180.076 107.834 180.073 107.807 180.08C107.78 180.087 107.756 180.101 107.737 180.123Z" fill="#141414"/>
<path d="M60.7689 140.939C64.8648 140.939 68.1848 137.472 68.1848 133.196C68.1848 128.919 64.8648 125.453 60.7689 125.453C56.6731 125.453 53.3527 128.919 53.3527 133.196C53.3527 137.472 56.6731 140.939 60.7689 140.939Z" fill="#141051"/>
<path d="M72.6709 137.782C76.7668 137.782 80.0867 134.315 80.0867 130.039C80.0867 125.762 76.7668 122.296 72.6709 122.296C68.5751 122.296 65.2551 125.762 65.2551 130.039C65.2551 134.315 68.5751 137.782 72.6709 137.782Z" fill="#141051"/>
<path d="M85.5853 140.154C89.6811 140.154 93.0015 136.687 93.0015 132.411C93.0015 128.135 89.6811 124.668 85.5853 124.668C81.4899 124.668 78.1694 128.135 78.1694 132.411C78.1694 136.687 81.4899 140.154 85.5853 140.154Z" fill="#141051"/>
<path d="M100.074 139.337C104.697 139.337 108.445 135.424 108.445 130.596C108.445 125.769 104.697 121.856 100.074 121.856C95.4504 121.856 91.7026 125.769 91.7026 130.596C91.7026 135.424 95.4504 139.337 100.074 139.337Z" fill="#141051"/>
<path d="M112.929 140.39C116.495 140.39 119.386 137.372 119.386 133.649C119.386 129.925 116.495 126.907 112.929 126.907C109.363 126.907 106.472 129.925 106.472 133.649C106.472 137.372 109.363 140.39 112.929 140.39Z" fill="#141051"/>
<path d="M123.049 136.392C126.615 136.392 129.506 133.373 129.506 129.65C129.506 125.927 126.615 122.908 123.049 122.908C119.483 122.908 116.592 125.927 116.592 129.65C116.592 133.373 119.483 136.392 123.049 136.392Z" fill="#141051"/>
<path d="M135.654 138.223C140.702 138.223 144.794 133.951 144.794 128.681C144.794 123.411 140.702 119.139 135.654 119.139C130.607 119.139 126.515 123.411 126.515 128.681C126.515 133.951 130.607 138.223 135.654 138.223Z" fill="#141051"/>
<path d="M146.332 140.124C149.681 140.124 152.396 137.29 152.396 133.793C152.396 130.297 149.681 127.462 146.332 127.462C142.983 127.462 140.268 130.297 140.268 133.793C140.268 137.29 142.983 140.124 146.332 140.124Z" fill="#141051"/>
<path d="M152.755 137.197C156.104 137.197 158.819 134.362 158.819 130.866C158.819 127.369 156.104 124.535 152.755 124.535C149.406 124.535 146.691 127.369 146.691 130.866C146.691 134.362 149.406 137.197 152.755 137.197Z" fill="#141051"/>
<path d="M163.121 136.381C167.398 136.381 170.865 132.761 170.865 128.296C170.865 123.83 167.398 120.211 163.121 120.211C158.844 120.211 155.377 123.83 155.377 128.296C155.377 132.761 158.844 136.381 163.121 136.381Z" fill="#141051"/>
<path d="M100.746 89.623L101.636 84.1157C101.64 84.099 101.649 84.0843 101.661 84.0736C101.674 84.0628 101.69 84.0574 101.706 84.0574C101.723 84.0574 101.739 84.0628 101.752 84.0736C101.764 84.0843 101.773 84.099 101.777 84.1157L102.577 86.2801C102.582 86.2919 102.589 86.3026 102.599 86.311C102.609 86.3188 102.62 86.3247 102.632 86.3271C102.644 86.3296 102.656 86.3291 102.668 86.3256C102.68 86.3222 102.691 86.3154 102.7 86.3065L106.236 82.4259C106.248 82.4141 106.263 82.4073 106.279 82.4048C106.294 82.4029 106.31 82.4063 106.324 82.4141C106.338 82.422 106.349 82.4342 106.356 82.4489C106.363 82.4641 106.365 82.4808 106.362 82.4974C106.056 83.7846 104.722 89.0582 103.118 91.0228" fill="#0C513F"/>
<path d="M104.101 91.565C104.101 91.565 108.28 91.4748 110.977 89.7846C111.011 89.764 111.04 89.7341 111.059 89.6979C111.079 89.6621 111.09 89.621 111.09 89.5793C111.09 89.5382 111.079 89.497 111.059 89.4613C111.04 89.425 111.011 89.3952 110.977 89.3746C109.917 88.7271 106.355 86.9692 103.568 90.4546" fill="#0C513F"/>
<path d="M103.725 91.9043L109.785 85.9983C109.815 85.9689 109.838 85.9317 109.85 85.8906C109.863 85.8494 109.865 85.8053 109.857 85.7632C109.849 85.7211 109.83 85.6814 109.803 85.6491C109.776 85.6163 109.741 85.5913 109.702 85.5766C108.534 85.1402 104.698 84.308 101.41 90.3874" fill="#0C513F"/>
<path d="M94.4516 89.3329C94.4516 89.3329 86.1881 99.9517 92.3495 105.229C92.3495 105.229 96.0668 108.707 101.103 104.792C106.14 100.877 110.765 97.2642 105.826 91.7794C98.8318 84.0029 94.4516 89.3329 94.4516 89.3329Z" fill="#ED5E3B"/>
<path d="M96.6302 90.6618C96.8024 90.221 96.7179 89.7684 96.4416 89.6504C96.1649 89.5323 95.8013 89.7944 95.6291 90.2352C95.4565 90.676 95.5409 91.1286 95.8177 91.2466C96.094 91.3642 96.4581 91.1026 96.6302 90.6618Z" fill="#FFEDB3"/>
<path d="M102.441 94.0772C102.56 93.7711 102.315 93.3768 101.893 93.197C101.471 93.0173 101.032 93.1196 100.912 93.4257C100.792 93.7314 101.038 94.1257 101.46 94.3054C101.882 94.4852 102.321 94.3828 102.441 94.0772Z" fill="#FFEDB3"/>
<path d="M94.5867 99.9654C94.7682 99.5016 94.6866 99.0279 94.4042 98.9079C94.1223 98.7875 93.7465 99.0661 93.5654 99.53C93.3839 99.9938 93.4655 100.467 93.7479 100.587C94.0298 100.708 94.4056 100.429 94.5867 99.9654Z" fill="#FFEDB3"/>
<path d="M101.508 100.846C101.627 100.54 101.394 100.152 100.986 99.9777C100.579 99.8043 100.152 99.9116 100.032 100.218C99.9126 100.524 100.146 100.913 100.553 101.086C100.961 101.259 101.388 101.152 101.508 100.846Z" fill="#FFEDB3"/>
<path d="M92.5189 95.9006C92.6981 95.4426 92.6849 95.0037 92.4893 94.9205C92.2937 94.8372 91.9902 95.1409 91.8114 95.5993C91.6322 96.0573 91.6454 96.4962 91.841 96.5794C92.0361 96.6627 92.3396 96.3585 92.5189 95.9006Z" fill="#FFEDB3"/>
<path d="M97.0843 105.861C97.1767 105.624 96.8559 105.263 96.367 105.055C95.8787 104.847 95.4077 104.87 95.3148 105.107C95.2224 105.344 95.5433 105.704 96.0321 105.912C96.5204 106.121 96.9914 106.098 97.0843 105.861Z" fill="#FFEDB3"/>
<path d="M107.464 96.8478C107.636 96.407 107.579 95.9657 107.335 95.8619C107.092 95.758 106.755 96.0313 106.583 96.4721C106.41 96.913 106.468 97.3543 106.711 97.4581C106.955 97.5619 107.291 97.2886 107.464 96.8478Z" fill="#FFEDB3"/>
<path d="M125.04 98.8517C125.073 102.292 121.727 104.769 119.207 104.795C116.006 104.829 114.077 102.838 114.041 99.3973C114.005 95.957 116.925 92.908 120.126 92.8703C123.328 92.8326 125.004 95.4148 125.04 98.8517Z" fill="#993832"/>
<path d="M118.31 102.031C118.268 102.263 118.185 102.485 118.066 102.686C117.978 102.763 117.878 102.822 117.77 102.859C117.671 102.917 117.562 102.955 117.449 102.968C117.335 102.958 117.225 102.923 117.125 102.866C117.015 102.832 116.914 102.776 116.825 102.701C116.755 102.607 116.701 102.502 116.667 102.388C116.614 102.283 116.581 102.168 116.569 102.05C116.577 101.931 116.608 101.815 116.663 101.711C116.692 101.596 116.744 101.488 116.814 101.395C116.9 101.318 116.999 101.259 117.106 101.222C117.201 101.153 117.314 101.116 117.429 101.116C117.544 101.116 117.657 101.153 117.752 101.222C117.861 101.255 117.963 101.311 118.051 101.387C118.122 101.48 118.176 101.586 118.21 101.7C118.264 101.802 118.298 101.915 118.31 102.031Z" fill="#312423"/>
<path d="M52.2596 73.7316L51.4162 78.8019C51.3158 79.5136 51.0441 80.1871 50.6266 80.7597L48.9716 83.0181C48.9472 83.0509 48.9322 83.0911 48.9284 83.1327C48.9247 83.1744 48.9322 83.2165 48.9505 83.2537C48.9683 83.2909 48.9965 83.3223 49.0307 83.3438C49.0649 83.3654 49.1048 83.3766 49.1447 83.3756L160.006 82.0468C160.034 82.0463 160.062 82.0385 160.086 82.0233C160.11 82.0081 160.13 81.9871 160.144 81.9611C160.157 81.9357 160.164 81.9068 160.163 81.8774C160.162 81.848 160.154 81.8196 160.14 81.7946L159.325 80.4545C158.943 79.8202 158.716 79.0978 158.665 78.3503L157.843 72.6702C157.811 72.1779 157.601 71.717 157.257 71.3796C156.913 71.0416 156.459 70.8521 155.986 70.8481L54.1779 72.0192C53.7139 72.0148 53.264 72.1858 52.9117 72.5007C52.5589 72.8152 52.3277 73.2526 52.2596 73.7316Z" fill="#05AA70"/>
<path d="M133.614 211.222L257.404 208.907C257.872 208.898 258.333 208.794 258.761 208.598C259.189 208.402 259.576 208.12 259.899 207.766C260.222 207.414 260.475 206.997 260.642 206.542C260.81 206.086 260.889 205.601 260.876 205.113L260.66 197.144C260.648 196.719 260.477 196.315 260.182 196.022C259.888 195.728 259.495 195.567 259.088 195.574L131.526 197.652C131.323 197.656 131.122 197.701 130.935 197.785C130.749 197.87 130.579 197.992 130.438 198.144C130.296 198.297 130.185 198.478 130.11 198.675C130.035 198.873 129.998 199.084 130.002 199.297L130.131 207.619C130.146 208.576 130.519 209.488 131.17 210.161C131.821 210.835 132.698 211.215 133.614 211.222Z" fill="#EEB36A"/>
<path d="M134.653 198.117L255.126 196.084C256.665 196.057 258.13 195.393 259.2 194.238C260.27 193.083 260.857 191.533 260.833 189.926L260.732 183.482L128.6 185.714L128.762 192.215C128.8 193.811 129.441 195.326 130.545 196.432C131.647 197.537 133.124 198.142 134.653 198.117Z" fill="#FFB3CE"/>
<path d="M179.534 184.142C179.534 184.142 183.673 194.551 189.206 193.222C189.206 193.222 194.297 200.279 199.662 193.941C199.662 193.941 210.139 196.06 211.559 186.231L213.001 176.403" fill="#3D7465"/>
<path d="M131.164 181.779C131.164 181.779 120.417 190.719 138.735 192.639C138.735 192.639 144.331 198.767 149.677 195.142C149.677 195.142 162.447 197.608 162.789 190.019" fill="#ED5E3B"/>
<path d="M240.769 182.564C240.769 182.564 249.919 193.28 231.55 191.918C231.55 191.918 225.061 196.962 220.374 192.445C220.374 192.445 207.096 193.83 207.691 183.377" fill="#ED5E3B"/>
<path d="M259.645 172.213C259.645 172.213 267.656 180.622 258.229 188.538C252.795 193.1 240.923 190.198 241.817 182.659" fill="#ED5E3B"/>
<path d="M200.916 184.099L165.289 202.31C164.34 202.711 163.28 202.713 162.33 202.317C161.38 201.921 160.614 201.156 160.191 200.184L148.384 185.921C148.384 185.921 137.95 184.099 145.233 183.489L245.56 181.607C245.56 181.607 246.735 183.866 242.416 183.779L232.116 197.458C231.913 197.725 231.655 197.941 231.362 198.09C231.068 198.238 230.746 198.315 230.419 198.315C230.093 198.315 229.771 198.238 229.477 198.09C229.184 197.941 228.926 197.725 228.723 197.458L218.391 183.975L200.916 184.099Z" fill="#FFC501"/>
<path d="M133.901 185.121L255.423 182.128C256.027 182.113 256.621 181.973 257.173 181.715C257.724 181.458 258.222 181.089 258.635 180.631C259.05 180.172 259.372 179.632 259.585 179.042C259.798 178.452 259.897 177.823 259.876 177.194L259.476 165.766L129.081 169.417L129.542 180.852C129.586 182.019 130.068 183.12 130.884 183.919C131.699 184.718 132.783 185.149 133.901 185.121Z" fill="#EEB36A"/>
<path d="M130.877 166.37L211.854 133.083C213.238 132.515 214.735 132.316 216.21 132.506C217.685 132.695 219.091 133.266 220.302 134.167L258.946 162.94C259.327 163.795 259.497 164.735 259.441 165.676C259.386 166.616 259.107 167.527 258.63 168.327C258.152 169.127 257.492 169.789 256.707 170.256C255.923 170.721 255.039 170.976 254.137 170.996L132.968 173.736C129.071 173.819 127.56 168.496 130.877 166.37Z" fill="#FFEDB3"/>
<path d="M202.801 161.276C203.241 161.276 203.598 161.051 203.598 160.775C203.598 160.498 203.241 160.274 202.801 160.274C202.361 160.274 202.004 160.498 202.004 160.775C202.004 161.051 202.361 161.276 202.801 161.276Z" fill="#FFF8E6"/>
<path d="M243.849 166.786C244.289 166.786 244.646 166.562 244.646 166.285C244.646 166.009 244.289 165.785 243.849 165.785C243.409 165.785 243.052 166.009 243.052 166.285C243.052 166.562 243.409 166.786 243.849 166.786Z" fill="#E0C886"/>
<path d="M217.141 158.998C217.581 158.998 217.938 158.775 217.938 158.498C217.938 158.222 217.581 157.997 217.141 157.997C216.701 157.997 216.344 158.222 216.344 158.498C216.344 158.775 216.701 158.998 217.141 158.998Z" fill="#E0C886"/>
<path d="M228.827 167.341C229.267 167.341 229.624 167.116 229.624 166.84C229.624 166.563 229.267 166.339 228.827 166.339C228.387 166.339 228.031 166.563 228.031 166.84C228.031 167.116 228.387 167.341 228.827 167.341Z" fill="#FFF8E6"/>
<path d="M230.041 159.056C230.481 159.056 230.838 158.832 230.838 158.555C230.838 158.279 230.481 158.055 230.041 158.055C229.601 158.055 229.245 158.279 229.245 158.555C229.245 158.832 229.601 159.056 230.041 159.056Z" fill="#E0C886"/>
<path d="M240.638 158.004C241.078 158.004 241.435 157.78 241.435 157.503C241.435 157.227 241.078 157.002 240.638 157.002C240.198 157.002 239.841 157.227 239.841 157.503C239.841 157.78 240.198 158.004 240.638 158.004Z" fill="#FFF8E6"/>
<path d="M213.21 166.154C213.65 166.154 214.007 165.93 214.007 165.654C214.007 165.377 213.65 165.153 213.21 165.153C212.77 165.153 212.413 165.377 212.413 165.654C212.413 165.93 212.77 166.154 213.21 166.154Z" fill="#E0C886"/>
<path d="M186.258 155.21C186.698 155.21 187.055 154.986 187.055 154.71C187.055 154.433 186.698 154.209 186.258 154.209C185.818 154.209 185.462 154.433 185.462 154.71C185.462 154.986 185.818 155.21 186.258 155.21Z" fill="#FFF8E6"/>
<path d="M196.186 156.129C196.626 156.129 196.983 155.905 196.983 155.628C196.983 155.352 196.626 155.128 196.186 155.128C195.746 155.128 195.389 155.352 195.389 155.628C195.389 155.905 195.746 156.129 196.186 156.129Z" fill="#E0C886"/>
<path d="M230.628 147.634C231.068 147.634 231.425 147.41 231.425 147.133C231.425 146.857 231.068 146.633 230.628 146.633C230.188 146.633 229.831 146.857 229.831 147.133C229.831 147.41 230.188 147.634 230.628 147.634Z" fill="#E0C886"/>
<path d="M198.994 146.295C199.434 146.295 199.791 146.071 199.791 145.794C199.791 145.518 199.434 145.294 198.994 145.294C198.554 145.294 198.197 145.518 198.197 145.794C198.197 146.071 198.554 146.295 198.994 146.295Z" fill="#FFF8E6"/>
<path d="M207.401 151.537C207.841 151.537 208.198 151.313 208.198 151.036C208.198 150.76 207.841 150.536 207.401 150.536C206.961 150.536 206.604 150.76 206.604 151.036C206.604 151.313 206.961 151.537 207.401 151.537Z" fill="#E0C886"/>
<path d="M207.405 137.187C207.845 137.187 208.202 136.964 208.202 136.687C208.202 136.411 207.845 136.186 207.405 136.186C206.965 136.186 206.609 136.411 206.609 136.687C206.609 136.964 206.965 137.187 207.405 137.187Z" fill="#E0C886"/>
<path d="M191.587 170.344C192.027 170.344 192.383 170.12 192.383 169.844C192.383 169.567 192.027 169.343 191.587 169.343C191.147 169.343 190.79 169.567 190.79 169.844C190.79 170.12 191.147 170.344 191.587 170.344Z" fill="#E0C886"/>
<path d="M183.968 164.7C184.408 164.7 184.765 164.476 184.765 164.2C184.765 163.923 184.408 163.699 183.968 163.699C183.528 163.699 183.171 163.923 183.171 164.2C183.171 164.476 183.528 164.7 183.968 164.7Z" fill="#E0C886"/>
<path d="M159.536 161.563C159.976 161.563 160.333 161.338 160.333 161.062C160.333 160.785 159.976 160.561 159.536 160.561C159.096 160.561 158.74 160.785 158.74 161.062C158.74 161.338 159.096 161.563 159.536 161.563Z" fill="#FFF8E6"/>
<path d="M155.138 170.268C155.578 170.268 155.935 170.044 155.935 169.767C155.935 169.491 155.578 169.267 155.138 169.267C154.698 169.267 154.342 169.491 154.342 169.767C154.342 170.044 154.698 170.268 155.138 170.268Z" fill="#FFF8E6"/>
<path d="M185.773 148.686C186.213 148.686 186.569 148.462 186.569 148.186C186.569 147.909 186.213 147.685 185.773 147.685C185.333 147.685 184.976 147.909 184.976 148.186C184.976 148.462 185.333 148.686 185.773 148.686Z" fill="#E0C886"/>
<path d="M168.149 155.096C168.589 155.096 168.946 154.872 168.946 154.595C168.946 154.319 168.589 154.094 168.149 154.094C167.709 154.094 167.352 154.319 167.352 154.595C167.352 154.872 167.709 155.096 168.149 155.096Z" fill="#E0C886"/>
<path d="M215.212 142.966C215.652 142.966 216.009 142.741 216.009 142.465C216.009 142.188 215.652 141.964 215.212 141.964C214.772 141.964 214.415 142.188 214.415 142.465C214.415 142.741 214.772 142.966 215.212 142.966Z" fill="#E0C886"/>
<path d="M173.765 169.79C174.205 169.79 174.562 169.565 174.562 169.289C174.562 169.012 174.205 168.788 173.765 168.788C173.325 168.788 172.969 169.012 172.969 169.289C172.969 169.565 173.325 169.79 173.765 169.79Z" fill="#E0C886"/>
<path d="M171.961 162.194C172.401 162.194 172.757 161.97 172.757 161.693C172.757 161.417 172.401 161.193 171.961 161.193C171.521 161.193 171.164 161.417 171.164 161.693C171.164 161.97 171.521 162.194 171.961 162.194Z" fill="#E0C886"/>
<path d="M140.973 169.369C141.413 169.369 141.77 169.145 141.77 168.868C141.77 168.592 141.413 168.367 140.973 168.367C140.533 168.367 140.177 168.592 140.177 168.868C140.177 169.145 140.533 169.369 140.973 169.369Z" fill="#E0C886"/>
</g>
</g>
<defs>
<clipPath id="clip0_3_104">
<rect width="319" height="240" fill="white"/>
</clipPath>
</defs>
</svg>
