<svg width="42" height="36" viewBox="0 0 42 36" fill="none" xmlns="http://www.w3.org/2000/svg">
<path d="M38.0546 0.0713166L23.9429 0.105798C21.8101 0.11101 20.0853 1.84423 20.0905 3.97706L20.1552 30.4604C20.1604 32.5933 21.8936 34.318 24.0265 34.3128L38.1382 34.2783C40.271 34.2731 41.9958 32.5399 41.9906 30.4071L41.9259 3.9237C41.9207 1.79088 40.1874 0.0661051 38.0546 0.0713166Z" fill="#0052BA"/>
<path d="M31.0336 32.4194C30.9375 32.4018 30.8631 32.3166 30.8631 32.2151L30.79 1.81972C30.79 1.70471 30.8834 1.61134 30.9984 1.61134C31.1121 1.60999 31.2068 1.70335 31.2068 1.81972L31.2799 32.2151C31.2799 32.3301 31.1865 32.4235 31.0715 32.4235C31.058 32.4235 31.0458 32.4235 31.0323 32.4194H31.0336Z" fill="#004C9E"/>
<path d="M26.5599 6.55789L25.1012 8.29937C24.6777 8.80408 23.924 8.87038 23.4179 8.44821C22.9132 8.02468 22.8469 7.27099 23.269 6.76492L24.7277 5.02344L26.5585 6.55789H26.5599Z" fill="#00ABFF"/>
<path d="M27.9584 4.88735L26.5593 6.55711L24.7285 5.02267L26.1277 3.3529C26.5512 2.84683 27.3049 2.78188 27.8109 3.20406C28.064 3.41515 28.2061 3.70877 28.2345 4.01458C28.2602 4.31768 28.1722 4.63296 27.9598 4.88735H27.9584Z" fill="#FBFFFF"/>
<path d="M26.5779 14.0364L25.1192 15.7779C24.6957 16.2826 23.942 16.3489 23.436 15.9267C22.9312 15.5032 22.8649 14.7495 23.2871 14.2434L24.7458 12.502L26.5766 14.0364H26.5779Z" fill="#FBFFFF"/>
<path d="M27.9765 12.3659L26.5774 14.0356L24.7466 12.5012L26.1457 10.8314C26.5693 10.3253 27.3229 10.2604 27.829 10.6826C28.082 10.8937 28.2241 11.1873 28.2525 11.4931C28.2783 11.7962 28.1903 12.1115 27.9779 12.3659H27.9765Z" fill="#00ABFF"/>
<path d="M26.5955 21.5052L25.1368 23.2466C24.7133 23.7513 23.9596 23.8177 23.4535 23.3955C22.9488 22.9719 22.8825 22.2183 23.3047 21.7122L24.7634 19.9707L26.5941 21.5052H26.5955Z" fill="#FBFFFF"/>
<path d="M27.9941 19.8346L26.5949 21.5044L24.7642 19.9699L26.1633 18.3002C26.5868 17.7941 27.3405 17.7291 27.8466 18.1513C28.0996 18.3624 28.2417 18.656 28.2701 18.9618C28.2958 19.2649 28.2079 19.5802 27.9954 19.8346H27.9941Z" fill="#00ABFF"/>
<path d="M26.6131 28.9817L25.1544 30.7232C24.7309 31.2279 23.9772 31.2942 23.4711 30.872C22.9664 30.4485 22.9001 29.6948 23.3223 29.1887L24.7809 27.4473L26.6117 28.9817H26.6131Z" fill="#FBFFFF"/>
<path d="M28.0117 27.3112L26.6125 28.9809L24.7817 27.4465L26.1809 25.7767C26.6044 25.2707 27.3581 25.2057 27.8642 25.6279C28.1172 25.839 28.2593 26.1326 28.2877 26.4384C28.3134 26.7415 28.2255 27.0568 28.013 27.3112H28.0117Z" fill="#00ABFF"/>
<path d="M37.5481 6.53445L36.0894 8.27593C35.6659 8.78064 34.9122 8.84695 34.4061 8.42477C33.9001 8.00259 33.8351 7.24755 34.2573 6.74148L35.716 5L37.5467 6.53445H37.5481Z" fill="#FBFFFF"/>
<path d="M38.9477 4.86392L37.5486 6.53368L35.7178 4.99923L37.1169 3.32947C37.5404 2.82339 38.2941 2.75845 38.8002 3.18062C39.0532 3.39171 39.1953 3.68534 39.2237 3.99115C39.2494 4.29425 39.1615 4.60953 38.949 4.86392H38.9477Z" fill="#00ABFF"/>
<path d="M37.5666 14.011L36.108 15.7525C35.6844 16.2572 34.9308 16.3235 34.4247 15.9013C33.9186 15.4792 33.8537 14.7241 34.2758 14.218L35.7345 12.4766L37.5653 14.011H37.5666Z" fill="#00ABFF"/>
<path d="M38.9658 12.3405L37.5666 14.0102L35.7358 12.4758L37.135 10.806C37.5585 10.3 38.3122 10.235 38.8183 10.6572C39.0713 10.8683 39.2134 11.1619 39.2418 11.4677C39.2675 11.7708 39.1796 12.0861 38.9671 12.3405H38.9658Z" fill="#FBFFFF"/>
<path d="M37.5837 21.4817L36.1251 23.2232C35.7015 23.7279 34.9478 23.7942 34.4418 23.372C33.9357 22.9499 33.8707 22.1948 34.2929 21.6887L35.7516 19.9473L37.5824 21.4817H37.5837Z" fill="#00ABFF"/>
<path d="M38.9828 19.8112L37.5837 21.4809L35.7529 19.9465L37.1521 18.2767C37.5756 17.7707 38.3293 17.7057 38.8354 18.1279C39.0884 18.339 39.2305 18.6326 39.2589 18.9384C39.2846 19.2415 39.1966 19.5568 38.9842 19.8112H38.9828Z" fill="#FBFFFF"/>
<path d="M37.6009 28.9583L36.1422 30.6998C35.7187 31.2045 34.965 31.2708 34.4589 30.8486C33.9542 30.4251 33.8879 29.6714 34.3101 29.1653L35.7687 27.4238L37.5995 28.9583H37.6009Z" fill="#FBFFFF"/>
<path d="M38.9995 27.2877L37.6003 28.9575L35.7695 27.4231L37.1687 25.7533C37.5922 25.2472 38.3459 25.1823 38.852 25.6044C39.105 25.8155 39.2471 26.1092 39.2755 26.415C39.3012 26.7181 39.2132 27.0334 39.0008 27.2877H38.9995Z" fill="#00ABFF"/>
<path d="M18.669 6.40625H3.33936V6.96238H18.669V6.40625Z" fill="#D0E2EF"/>
<path d="M18.7422 5.51953H3.27588V6.17174H18.7422V5.51953Z" fill="#469FF7"/>
<path d="M10.6299 35.202C-0.515823 35.202 0.00377944 31.5012 0.00377944 31.5012V9.38291C0.00377944 8.55615 0.538266 7.82546 1.32579 7.57378L3.34195 6.92969H18.6688L20.685 7.57378C21.4725 7.82546 22.007 8.55615 22.007 9.38291V31.5012C22.007 31.5012 22.8663 35.202 10.6299 35.202Z" fill="#F0F8FF"/>
<path d="M19.4499 5.13094C19.4499 5.3542 19.2293 5.54093 18.9424 5.55988C17.9086 5.62618 15.2836 5.7615 10.9103 5.7615C6.53694 5.7615 4.1216 5.62618 3.08104 5.55853C2.79283 5.53958 2.57227 5.35285 2.57227 5.12958V3.41923C2.57227 3.18514 2.81177 2.99435 3.11352 2.98893C4.27044 2.96728 7.18509 2.91992 10.936 2.91992C13.6706 2.91992 17.5 2.97134 18.9059 2.99164C19.209 2.9957 19.4512 3.18784 19.4512 3.42193V5.12958L19.4499 5.13094Z" fill="#99C8FF"/>
<path d="M18.7892 6.09766H3.23088C3.11281 6.09766 3.01709 6.19338 3.01709 6.31145V6.31822C3.01709 6.43629 3.11281 6.53201 3.23088 6.53201H18.7892C18.9072 6.53201 19.003 6.43629 19.003 6.31822V6.31145C19.003 6.19338 18.9072 6.09766 18.7892 6.09766Z" fill="#D2ECFF"/>
<path d="M4.74687 2.96484V5.64675C4.414 5.63321 4.12038 5.61833 3.86328 5.60615V2.97837C4.12308 2.97431 4.41806 2.9689 4.74687 2.96484Z" fill="#7BBDFF"/>
<path d="M7.429 2.93555V5.72841C7.11914 5.723 6.82551 5.71487 6.54541 5.70811V2.94367C6.82686 2.94096 7.1232 2.93825 7.429 2.9369V2.93555Z" fill="#7BBDFF"/>
<path d="M10.1108 2.92383V5.7627C9.80765 5.76134 9.51403 5.75864 9.22852 5.75728V2.92789C9.51673 2.92653 9.81036 2.92518 10.1108 2.92518V2.92383Z" fill="#7BBDFF"/>
<path d="M12.7928 2.92789V5.75322C12.5073 5.75593 12.2136 5.75864 11.9092 5.75999V2.92383C12.1974 2.92383 12.4937 2.92653 12.7928 2.92789Z" fill="#7BBDFF"/>
<path d="M15.4744 2.95343V5.70976C15.1957 5.71652 14.9007 5.72329 14.5908 5.73006V2.94531C14.8885 2.94802 15.1848 2.95073 15.4744 2.95479V2.95343Z" fill="#7BBDFF"/>
<path d="M18.1567 2.98543V5.60915C17.9009 5.62268 17.6073 5.63621 17.2744 5.64974V2.97461C17.5965 2.97867 17.8928 2.98273 18.1567 2.98679V2.98543Z" fill="#7BBDFF"/>
<path d="M11.0098 29.2813C15.5467 29.2813 19.2246 25.6033 19.2246 21.0664C19.2246 16.5295 15.5467 12.8516 11.0098 12.8516C6.47283 12.8516 2.79492 16.5295 2.79492 21.0664C2.79492 25.6033 6.47283 29.2813 11.0098 29.2813Z" fill="#99C8FF"/>
<path d="M12.4945 17.4023H9.52441V24.735H12.4945V17.4023Z" fill="white"/>
<path d="M14.6758 22.5522V19.582H7.34317V22.5522H14.6758Z" fill="white"/>
</svg>
